<svg xmlns="http://www.w3.org/2000/svg" xmlns:xlink="http://www.w3.org/1999/xlink" width="500" zoomAndPan="magnify" viewBox="0 0 375 374.999991" height="500" preserveAspectRatio="xMidYMid meet" version="1.0"><defs><g/><clipPath id="4ca9c838dd"><path d="M 125.066406 104 L 154 104 L 154 150 L 125.066406 150 Z M 125.066406 104 " clip-rule="nonzero"/></clipPath><clipPath id="b85ae2baa6"><path d="M 218 144 L 249.566406 144 L 249.566406 192 L 218 192 Z M 218 144 " clip-rule="nonzero"/></clipPath><clipPath id="174fe7f60d"><path d="M 173 101 L 249.566406 101 L 249.566406 167 L 173 167 Z M 173 101 " clip-rule="nonzero"/></clipPath><clipPath id="592abe6507"><path d="M 125.066406 145 L 144 145 L 144 175 L 125.066406 175 Z M 125.066406 145 " clip-rule="nonzero"/></clipPath><clipPath id="a2a4b512b4"><path d="M 141 80.621094 L 180 80.621094 L 180 146 L 141 146 Z M 141 80.621094 " clip-rule="nonzero"/></clipPath></defs><g fill="#190402" fill-opacity="1"><g transform="translate(21.729809, 277.066921)"><g><path d="M 39.5 -5.578125 C 35.550781 -1.628906 30.953125 0.34375 25.703125 0.34375 C 22.453125 0.34375 19.398438 -0.300781 16.546875 -1.59375 C 13.691406 -2.894531 11.207031 -4.679688 9.09375 -6.953125 C 6.976562 -9.234375 5.304688 -11.914062 4.078125 -15 C 2.847656 -18.09375 2.234375 -21.429688 2.234375 -25.015625 C 2.234375 -28.398438 2.847656 -31.585938 4.078125 -34.578125 C 5.304688 -37.578125 7 -40.203125 9.15625 -42.453125 C 11.320312 -44.710938 13.867188 -46.503906 16.796875 -47.828125 C 19.722656 -49.148438 22.90625 -49.8125 26.34375 -49.8125 C 30.976562 -49.8125 34.957031 -48.835938 38.28125 -46.890625 C 41.601562 -44.941406 44.101562 -42.316406 45.78125 -39.015625 L 38.59375 -33.71875 C 37.34375 -36.175781 35.585938 -38.054688 33.328125 -39.359375 C 31.078125 -40.660156 28.628906 -41.3125 25.984375 -41.3125 C 23.898438 -41.3125 21.984375 -40.867188 20.234375 -39.984375 C 18.492188 -39.109375 17.007812 -37.898438 15.78125 -36.359375 C 14.550781 -34.828125 13.597656 -33.0625 12.921875 -31.0625 C 12.242188 -29.070312 11.90625 -26.960938 11.90625 -24.734375 C 11.90625 -22.410156 12.273438 -20.238281 13.015625 -18.21875 C 13.765625 -16.195312 14.789062 -14.441406 16.09375 -12.953125 C 17.394531 -11.472656 18.9375 -10.300781 20.71875 -9.4375 C 22.507812 -8.582031 24.453125 -8.15625 26.546875 -8.15625 C 31.328125 -8.15625 35.644531 -10.40625 39.5 -14.90625 L 39.5 -18.390625 L 29.546875 -18.390625 L 29.546875 -25.4375 L 47.453125 -25.4375 L 47.453125 0 L 39.5 0 Z M 39.5 -5.578125 "/></g></g></g><g fill="#190402" fill-opacity="1"><g transform="translate(69.448554, 277.066921)"><g><path d="M 38.1875 0 L 28.84375 0 L 28.84375 -20.484375 C 28.84375 -23.359375 28.304688 -25.476562 27.234375 -26.84375 C 26.171875 -28.21875 24.664062 -28.90625 22.71875 -28.90625 C 21.875 -28.90625 20.988281 -28.71875 20.0625 -28.34375 C 19.132812 -27.976562 18.25 -27.457031 17.40625 -26.78125 C 16.570312 -26.113281 15.804688 -25.3125 15.109375 -24.375 C 14.421875 -23.445312 13.914062 -22.425781 13.59375 -21.3125 L 13.59375 0 L 4.25 0 L 4.25 -50.859375 L 13.59375 -50.859375 L 13.59375 -29.75 C 14.9375 -32.113281 16.753906 -33.9375 19.046875 -35.21875 C 21.347656 -36.5 23.894531 -37.140625 26.6875 -37.140625 C 29.050781 -37.140625 30.976562 -36.734375 32.46875 -35.921875 C 33.957031 -35.109375 35.117188 -34.023438 35.953125 -32.671875 C 36.785156 -31.328125 37.363281 -29.796875 37.6875 -28.078125 C 38.019531 -26.359375 38.1875 -24.59375 38.1875 -22.78125 Z M 38.1875 0 "/></g></g></g><g fill="#190402" fill-opacity="1"><g transform="translate(108.738038, 277.066921)"><g><path d="M 15.390625 0.703125 C 11.628906 0.703125 8.773438 -0.503906 6.828125 -2.921875 C 4.878906 -5.335938 3.90625 -8.914062 3.90625 -13.65625 L 3.90625 -36.515625 L 13.234375 -36.515625 L 13.234375 -15.671875 C 13.234375 -10.054688 15.253906 -7.25 19.296875 -7.25 C 21.109375 -7.25 22.863281 -7.789062 24.5625 -8.875 C 26.257812 -9.96875 27.640625 -11.628906 28.703125 -13.859375 L 28.703125 -36.515625 L 38.046875 -36.515625 L 38.046875 -10.734375 C 38.046875 -9.753906 38.21875 -9.054688 38.5625 -8.640625 C 38.90625 -8.222656 39.472656 -7.988281 40.265625 -7.9375 L 40.265625 0 C 39.335938 0.1875 38.5625 0.300781 37.9375 0.34375 C 37.3125 0.394531 36.742188 0.421875 36.234375 0.421875 C 34.554688 0.421875 33.195312 0.0390625 32.15625 -0.71875 C 31.113281 -1.488281 30.5 -2.550781 30.3125 -3.90625 L 30.09375 -6.828125 C 28.46875 -4.316406 26.378906 -2.429688 23.828125 -1.171875 C 21.273438 0.078125 18.460938 0.703125 15.390625 0.703125 Z M 15.390625 0.703125 "/></g></g></g><g fill="#190402" fill-opacity="1"><g transform="translate(149.002805, 277.066921)"><g><path d="M 60.96875 0 L 51.625 0 L 51.625 -20.484375 C 51.625 -23.410156 51.125 -25.546875 50.125 -26.890625 C 49.125 -28.234375 47.742188 -28.90625 45.984375 -28.90625 C 44.128906 -28.90625 42.382812 -28.195312 40.75 -26.78125 C 39.125 -25.363281 37.96875 -23.519531 37.28125 -21.25 L 37.28125 0 L 27.9375 0 L 27.9375 -20.484375 C 27.9375 -23.410156 27.4375 -25.546875 26.4375 -26.890625 C 25.4375 -28.234375 24.054688 -28.90625 22.296875 -28.90625 C 20.484375 -28.90625 18.75 -28.207031 17.09375 -26.8125 C 15.445312 -25.425781 14.28125 -23.59375 13.59375 -21.3125 L 13.59375 0 L 4.25 0 L 4.25 -36.515625 L 12.6875 -36.515625 L 12.6875 -29.75 C 14.03125 -32.113281 15.875 -33.9375 18.21875 -35.21875 C 20.5625 -36.5 23.242188 -37.140625 26.265625 -37.140625 C 29.328125 -37.140625 31.691406 -36.394531 33.359375 -34.90625 C 35.035156 -33.414062 36.109375 -31.582031 36.578125 -29.40625 C 38.066406 -31.90625 39.945312 -33.816406 42.21875 -35.140625 C 44.5 -36.472656 47.101562 -37.140625 50.03125 -37.140625 C 52.257812 -37.140625 54.09375 -36.71875 55.53125 -35.875 C 56.96875 -35.039062 58.082031 -33.953125 58.875 -32.609375 C 59.664062 -31.265625 60.210938 -29.734375 60.515625 -28.015625 C 60.816406 -26.296875 60.96875 -24.550781 60.96875 -22.78125 Z M 60.96875 0 "/></g></g></g><g fill="#190402" fill-opacity="1"><g transform="translate(211.072196, 277.066921)"><g><path d="M 14.21875 0.703125 C 12.445312 0.703125 10.796875 0.410156 9.265625 -0.171875 C 7.734375 -0.753906 6.410156 -1.566406 5.296875 -2.609375 C 4.179688 -3.660156 3.304688 -4.878906 2.671875 -6.265625 C 2.046875 -7.660156 1.734375 -9.195312 1.734375 -10.875 C 1.734375 -12.59375 2.117188 -14.179688 2.890625 -15.640625 C 3.660156 -17.109375 4.726562 -18.351562 6.09375 -19.375 C 7.46875 -20.394531 9.101562 -21.191406 11 -21.765625 C 12.90625 -22.347656 15 -22.640625 17.28125 -22.640625 C 18.90625 -22.640625 20.492188 -22.5 22.046875 -22.21875 C 23.609375 -21.945312 24.992188 -21.554688 26.203125 -21.046875 L 26.203125 -23.125 C 26.203125 -25.539062 25.515625 -27.398438 24.140625 -28.703125 C 22.773438 -30.003906 20.742188 -30.65625 18.046875 -30.65625 C 16.097656 -30.65625 14.191406 -30.304688 12.328125 -29.609375 C 10.472656 -28.910156 8.570312 -27.890625 6.625 -26.546875 L 3.765625 -32.46875 C 8.453125 -35.582031 13.515625 -37.140625 18.953125 -37.140625 C 24.203125 -37.140625 28.273438 -35.847656 31.171875 -33.265625 C 34.078125 -30.691406 35.53125 -26.96875 35.53125 -22.09375 L 35.53125 -10.734375 C 35.53125 -9.753906 35.703125 -9.054688 36.046875 -8.640625 C 36.398438 -8.222656 36.972656 -7.988281 37.765625 -7.9375 L 37.765625 0 C 36.179688 0.320312 34.8125 0.484375 33.65625 0.484375 C 31.882812 0.484375 30.519531 0.09375 29.5625 -0.6875 C 28.613281 -1.476562 28.023438 -2.523438 27.796875 -3.828125 L 27.59375 -5.859375 C 25.96875 -3.710938 23.992188 -2.082031 21.671875 -0.96875 C 19.347656 0.144531 16.863281 0.703125 14.21875 0.703125 Z M 16.859375 -6.125 C 18.441406 -6.125 19.941406 -6.398438 21.359375 -6.953125 C 22.773438 -7.515625 23.875 -8.265625 24.65625 -9.203125 C 25.6875 -9.984375 26.203125 -10.863281 26.203125 -11.84375 L 26.203125 -16.03125 C 25.085938 -16.445312 23.878906 -16.78125 22.578125 -17.03125 C 21.273438 -17.289062 20.019531 -17.421875 18.8125 -17.421875 C 16.394531 -17.421875 14.421875 -16.875 12.890625 -15.78125 C 11.359375 -14.6875 10.59375 -13.304688 10.59375 -11.640625 C 10.59375 -10.054688 11.195312 -8.738281 12.40625 -7.6875 C 13.613281 -6.644531 15.097656 -6.125 16.859375 -6.125 Z M 16.859375 -6.125 "/></g></g></g><g fill="#190402" fill-opacity="1"><g transform="translate(248.271773, 277.066921)"><g><path d="M 38.1875 0 L 28.84375 0 L 28.84375 -20.484375 C 28.84375 -23.410156 28.332031 -25.546875 27.3125 -26.890625 C 26.289062 -28.234375 24.875 -28.90625 23.0625 -28.90625 C 22.132812 -28.90625 21.179688 -28.71875 20.203125 -28.34375 C 19.222656 -27.976562 18.300781 -27.457031 17.4375 -26.78125 C 16.582031 -26.113281 15.804688 -25.3125 15.109375 -24.375 C 14.421875 -23.445312 13.914062 -22.425781 13.59375 -21.3125 L 13.59375 0 L 4.25 0 L 4.25 -36.515625 L 12.6875 -36.515625 L 12.6875 -29.75 C 14.03125 -32.070312 15.976562 -33.882812 18.53125 -35.1875 C 21.082031 -36.488281 23.960938 -37.140625 27.171875 -37.140625 C 29.453125 -37.140625 31.3125 -36.71875 32.75 -35.875 C 34.1875 -35.039062 35.300781 -33.953125 36.09375 -32.609375 C 36.882812 -31.265625 37.429688 -29.734375 37.734375 -28.015625 C 38.035156 -26.296875 38.1875 -24.550781 38.1875 -22.78125 Z M 38.1875 0 "/></g></g></g><g fill="#190402" fill-opacity="1"><g transform="translate(287.561257, 277.066921)"><g><path d="M 26.125 -1.875 C 24.875 -1.320312 23.34375 -0.765625 21.53125 -0.203125 C 19.71875 0.347656 17.8125 0.625 15.8125 0.625 C 14.507812 0.625 13.289062 0.460938 12.15625 0.140625 C 11.019531 -0.179688 10.019531 -0.703125 9.15625 -1.421875 C 8.300781 -2.148438 7.617188 -3.082031 7.109375 -4.21875 C 6.597656 -5.351562 6.34375 -6.734375 6.34375 -8.359375 L 6.34375 -29.328125 L 1.53125 -29.328125 L 1.53125 -36.515625 L 6.34375 -36.515625 L 6.34375 -48.359375 L 15.671875 -48.359375 L 15.671875 -36.515625 L 23.34375 -36.515625 L 23.34375 -29.328125 L 15.671875 -29.328125 L 15.671875 -11.5 C 15.671875 -10.195312 16.007812 -9.273438 16.6875 -8.734375 C 17.363281 -8.203125 18.1875 -7.9375 19.15625 -7.9375 C 20.132812 -7.9375 21.085938 -8.097656 22.015625 -8.421875 C 22.941406 -8.753906 23.6875 -9.035156 24.25 -9.265625 Z M 26.125 -1.875 "/></g></g></g><g fill="#190402" fill-opacity="1"><g transform="translate(311.52478, 277.066921)"><g><path d="M 21.1875 0.703125 C 18.257812 0.703125 15.609375 0.203125 13.234375 -0.796875 C 10.867188 -1.796875 8.847656 -3.15625 7.171875 -4.875 C 5.503906 -6.59375 4.21875 -8.585938 3.3125 -10.859375 C 2.40625 -13.140625 1.953125 -15.535156 1.953125 -18.046875 C 1.953125 -20.648438 2.390625 -23.097656 3.265625 -25.390625 C 4.148438 -27.691406 5.425781 -29.710938 7.09375 -31.453125 C 8.769531 -33.191406 10.804688 -34.570312 13.203125 -35.59375 C 15.597656 -36.625 18.28125 -37.140625 21.25 -37.140625 C 24.21875 -37.140625 26.875 -36.625 29.21875 -35.59375 C 31.570312 -34.570312 33.570312 -33.203125 35.21875 -31.484375 C 36.863281 -29.765625 38.113281 -27.769531 38.96875 -25.5 C 39.832031 -23.226562 40.265625 -20.859375 40.265625 -18.390625 C 40.265625 -17.785156 40.253906 -17.203125 40.234375 -16.640625 C 40.210938 -16.085938 40.15625 -15.628906 40.0625 -15.265625 L 11.84375 -15.265625 C 11.976562 -13.816406 12.320312 -12.535156 12.875 -11.421875 C 13.4375 -10.304688 14.160156 -9.351562 15.046875 -8.5625 C 15.929688 -7.78125 16.929688 -7.175781 18.046875 -6.75 C 19.160156 -6.332031 20.320312 -6.125 21.53125 -6.125 C 23.382812 -6.125 25.132812 -6.578125 26.78125 -7.484375 C 28.4375 -8.390625 29.566406 -9.585938 30.171875 -11.078125 L 38.1875 -8.84375 C 36.832031 -6.0625 34.679688 -3.773438 31.734375 -1.984375 C 28.785156 -0.191406 25.269531 0.703125 21.1875 0.703125 Z M 30.65625 -21.3125 C 30.425781 -24.0625 29.414062 -26.257812 27.625 -27.90625 C 25.832031 -29.550781 23.660156 -30.375 21.109375 -30.375 C 19.859375 -30.375 18.6875 -30.148438 17.59375 -29.703125 C 16.5 -29.265625 15.535156 -28.648438 14.703125 -27.859375 C 13.867188 -27.078125 13.179688 -26.128906 12.640625 -25.015625 C 12.109375 -23.898438 11.796875 -22.664062 11.703125 -21.3125 Z M 30.65625 -21.3125 "/></g></g></g><g clip-path="url(#4ca9c838dd)"><path fill="#ffbc2e" d="M 150.652344 149.617188 C 151.039062 149.871094 151.554688 149.824219 151.886719 149.503906 L 153.558594 147.882812 C 153.511719 147.816406 153.453125 147.757812 153.40625 147.691406 C 148.476562 140.792969 137.441406 123.542969 135.511719 105.367188 C 135.433594 104.605469 134.589844 104.222656 133.957031 104.652344 C 128.601562 108.273438 125.074219 114.40625 125.074219 121.371094 L 125.074219 132.105469 C 125.074219 132.4375 125.238281 132.75 125.515625 132.933594 L 150.652344 149.617188 " fill-opacity="1" fill-rule="nonzero"/></g><g clip-path="url(#b85ae2baa6)"><path fill="#5db3ff" d="M 247.894531 144.375 L 219.152344 172.195312 C 218.695312 172.632812 218.765625 173.382812 219.292969 173.734375 L 246.179688 191.617188 C 246.675781 191.949219 247.363281 191.777344 247.621094 191.242188 C 248.871094 188.613281 249.574219 185.675781 249.574219 182.570312 L 249.574219 145.089844 C 249.574219 144.210938 248.523438 143.765625 247.894531 144.375 " fill-opacity="1" fill-rule="nonzero"/></g><g clip-path="url(#174fe7f60d)"><path fill="#acde50" d="M 229.460938 101.207031 L 216.945312 101.207031 C 216.691406 101.207031 216.445312 101.308594 216.257812 101.488281 L 174.136719 142.253906 C 173.679688 142.695312 173.746094 143.445312 174.273438 143.796875 L 208.855469 166.792969 C 209.242188 167.050781 209.757812 167.003906 210.089844 166.679688 L 229.457031 147.933594 C 229.914062 147.492188 229.84375 146.742188 229.316406 146.390625 L 212.164062 135.007812 C 211.636719 134.660156 211.566406 133.910156 212.023438 133.46875 L 218.113281 127.574219 C 218.449219 127.25 218.960938 127.203125 219.351562 127.460938 L 237.234375 139.328125 C 237.621094 139.585938 238.136719 139.539062 238.46875 139.214844 L 249.269531 128.761719 C 249.464844 128.574219 249.574219 128.316406 249.574219 128.046875 L 249.574219 121.371094 C 249.574219 110.234375 240.566406 101.207031 229.460938 101.207031 " fill-opacity="1" fill-rule="nonzero"/></g><path fill="#5db3ff" d="M 184.042969 118.382812 L 200.027344 102.914062 C 200.664062 102.292969 200.230469 101.207031 199.335938 101.207031 L 186.15625 101.207031 C 185.632812 101.207031 185.207031 101.621094 185.183594 102.148438 C 184.953125 107.335938 183.910156 112.476562 182.417969 117.382812 C 182.117188 118.363281 183.304688 119.097656 184.042969 118.382812 " fill-opacity="1" fill-rule="nonzero"/><g clip-path="url(#592abe6507)"><path fill="#acde50" d="M 142.878906 158.21875 C 143.335938 157.78125 143.265625 157.027344 142.738281 156.679688 L 126.609375 145.976562 C 125.949219 145.539062 125.074219 146.011719 125.074219 146.804688 L 125.074219 173.117188 C 125.074219 173.992188 126.121094 174.4375 126.75 173.828125 L 142.878906 158.21875 " fill-opacity="1" fill-rule="nonzero"/></g><path fill="#ffbc2e" d="M 197.902344 171.839844 C 197.515625 171.582031 197 171.628906 196.667969 171.953125 L 166.625 201.023438 C 165.984375 201.644531 166.421875 202.730469 167.3125 202.730469 L 194.191406 202.730469 C 194.847656 202.730469 195.46875 203.019531 195.894531 203.519531 L 211.765625 222.183594 C 213.117188 223.773438 215.707031 222.816406 215.707031 220.730469 L 215.707031 204.972656 C 215.707031 203.734375 216.707031 202.730469 217.945312 202.730469 L 229.460938 202.730469 C 232.683594 202.730469 235.71875 201.957031 238.417969 200.601562 C 239.109375 200.253906 239.191406 199.300781 238.546875 198.871094 L 197.902344 171.839844 " fill-opacity="1" fill-rule="nonzero"/><path fill="#5db3ff" d="M 187.464844 164.898438 L 166.359375 150.859375 C 165.972656 150.601562 165.457031 150.648438 165.125 150.972656 L 126.519531 188.332031 C 126.238281 188.605469 126.132812 189.027344 126.265625 189.398438 C 129.058594 197.171875 136.46875 202.730469 145.183594 202.730469 L 149.707031 202.730469 C 149.960938 202.730469 150.207031 202.632812 150.394531 202.453125 L 187.605469 166.4375 C 188.0625 165.996094 187.992188 165.246094 187.464844 164.898438 " fill-opacity="1" fill-rule="nonzero"/><g clip-path="url(#a2a4b512b4)"><path fill="#fb4d48" d="M 160.230469 107.519531 C 156.097656 107.519531 152.75 104.164062 152.75 100.023438 C 152.75 95.886719 156.097656 92.527344 160.230469 92.527344 C 164.359375 92.527344 167.707031 95.886719 167.707031 100.023438 C 167.707031 104.164062 164.359375 107.519531 160.230469 107.519531 Z M 141.015625 101.105469 C 141.484375 119.1875 153.238281 137.457031 158.125 144.304688 C 159.160156 145.75 161.289062 145.761719 162.324219 144.316406 C 167.304688 137.34375 179.457031 118.445312 179.457031 99.996094 C 179.457031 89.351562 170.851562 80.722656 160.234375 80.71875 C 149.007812 80.71875 140.734375 90.367188 141.015625 101.105469 " fill-opacity="1" fill-rule="nonzero"/></g></svg>