<svg xmlns="http://www.w3.org/2000/svg" xmlns:xlink="http://www.w3.org/1999/xlink" width="500" zoomAndPan="magnify" viewBox="0 0 375 374.999991" height="500" preserveAspectRatio="xMidYMid meet" version="1.0"><defs><clipPath id="94db2ee580"><path d="M 37.5 10.183594 L 335.25 10.183594 L 335.25 349 L 37.5 349 Z M 37.5 10.183594 " clip-rule="nonzero"/></clipPath></defs><path fill="#fb4d47" d="M 186.523438 141.703125 C 185.441406 141.703125 184.363281 141.648438 183.285156 141.542969 C 182.210938 141.4375 181.140625 141.277344 180.078125 141.070312 C 179.019531 140.859375 177.96875 140.59375 176.933594 140.28125 C 175.898438 139.96875 174.882812 139.605469 173.882812 139.191406 C 172.882812 138.777344 171.90625 138.316406 170.953125 137.804688 C 169.996094 137.296875 169.070312 136.742188 168.171875 136.140625 C 167.269531 135.539062 166.402344 134.898438 165.566406 134.210938 C 164.730469 133.527344 163.929688 132.800781 163.164062 132.035156 C 162.398438 131.273438 161.671875 130.472656 160.988281 129.636719 C 160.300781 128.800781 159.65625 127.933594 159.054688 127.035156 C 158.453125 126.136719 157.898438 125.210938 157.390625 124.257812 C 156.878906 123.304688 156.417969 122.328125 156.003906 121.328125 C 155.589844 120.332031 155.222656 119.3125 154.910156 118.28125 C 154.597656 117.246094 154.332031 116.199219 154.121094 115.136719 C 153.910156 114.078125 153.753906 113.011719 153.648438 111.933594 C 153.539062 110.859375 153.488281 109.78125 153.488281 108.699219 C 153.488281 107.617188 153.539062 106.539062 153.644531 105.464844 C 153.753906 104.386719 153.910156 103.320312 154.121094 102.261719 C 154.332031 101.199219 154.59375 100.152344 154.910156 99.117188 C 155.222656 98.082031 155.585938 97.066406 156 96.070312 C 156.414062 95.070312 156.878906 94.09375 157.386719 93.140625 C 157.898438 92.1875 158.453125 91.261719 159.054688 90.363281 C 159.65625 89.464844 160.300781 88.597656 160.984375 87.761719 C 161.671875 86.925781 162.398438 86.125 163.164062 85.359375 C 163.929688 84.597656 164.730469 83.871094 165.566406 83.1875 C 166.402344 82.5 167.269531 81.855469 168.167969 81.257812 C 169.070312 80.65625 169.996094 80.101562 170.949219 79.589844 C 171.902344 79.082031 172.878906 78.621094 173.878906 78.207031 C 174.878906 77.792969 175.898438 77.429688 176.933594 77.113281 C 177.96875 76.800781 179.015625 76.539062 180.078125 76.328125 C 181.140625 76.117188 182.207031 75.957031 183.285156 75.851562 C 184.359375 75.746094 185.441406 75.695312 186.523438 75.695312 C 187.605469 75.695312 188.683594 75.746094 189.761719 75.851562 C 190.835938 75.960938 191.90625 76.117188 192.96875 76.328125 C 194.027344 76.539062 195.078125 76.800781 196.113281 77.117188 C 197.148438 77.429688 198.164062 77.792969 199.164062 78.207031 C 200.164062 78.621094 201.140625 79.082031 202.09375 79.59375 C 203.050781 80.101562 203.976562 80.65625 204.875 81.257812 C 205.773438 81.859375 206.644531 82.5 207.480469 83.1875 C 208.316406 83.871094 209.117188 84.597656 209.882812 85.363281 C 210.648438 86.125 211.371094 86.925781 212.058594 87.761719 C 212.746094 88.597656 213.386719 89.464844 213.988281 90.363281 C 214.589844 91.261719 215.144531 92.1875 215.65625 93.140625 C 216.167969 94.09375 216.628906 95.070312 217.042969 96.070312 C 217.457031 97.070312 217.820312 98.085938 218.132812 99.121094 C 218.449219 100.15625 218.710938 101.203125 218.921875 102.261719 C 219.132812 103.320312 219.289062 104.390625 219.398438 105.464844 C 219.503906 106.542969 219.554688 107.621094 219.554688 108.699219 C 219.554688 109.78125 219.5 110.859375 219.394531 111.933594 C 219.285156 113.011719 219.125 114.078125 218.914062 115.136719 C 218.703125 116.195312 218.441406 117.242188 218.125 118.277344 C 217.8125 119.308594 217.445312 120.328125 217.03125 121.324219 C 216.617188 122.324219 216.15625 123.296875 215.644531 124.25 C 215.132812 125.203125 214.578125 126.128906 213.976562 127.027344 C 213.375 127.925781 212.734375 128.792969 212.046875 129.628906 C 211.359375 130.460938 210.636719 131.261719 209.871094 132.027344 C 209.105469 132.789062 208.304688 133.515625 207.46875 134.199219 C 206.632812 134.886719 205.765625 135.527344 204.867188 136.128906 C 203.96875 136.730469 203.042969 137.285156 202.089844 137.792969 C 201.132812 138.304688 200.160156 138.765625 199.160156 139.179688 C 198.160156 139.59375 197.144531 139.957031 196.109375 140.273438 C 195.074219 140.585938 194.027344 140.851562 192.964844 141.0625 C 191.90625 141.273438 190.835938 141.433594 189.761719 141.539062 C 188.683594 141.648438 187.605469 141.699219 186.523438 141.703125 Z M 186.523438 81.667969 C 185.636719 81.667969 184.753906 81.710938 183.871094 81.796875 C 182.992188 81.882812 182.113281 82.015625 181.246094 82.1875 C 180.378906 82.359375 179.519531 82.574219 178.671875 82.832031 C 177.824219 83.085938 176.988281 83.386719 176.171875 83.722656 C 175.351562 84.0625 174.550781 84.441406 173.769531 84.859375 C 172.988281 85.273438 172.230469 85.730469 171.492188 86.222656 C 170.753906 86.714844 170.046875 87.238281 169.359375 87.800781 C 168.675781 88.363281 168.019531 88.957031 167.390625 89.582031 C 166.765625 90.207031 166.171875 90.863281 165.609375 91.546875 C 165.046875 92.234375 164.519531 92.941406 164.027344 93.679688 C 163.535156 94.414062 163.078125 95.171875 162.664062 95.953125 C 162.246094 96.734375 161.867188 97.535156 161.527344 98.351562 C 161.1875 99.167969 160.890625 100.003906 160.632812 100.847656 C 160.375 101.695312 160.160156 102.554688 159.988281 103.421875 C 159.8125 104.289062 159.683594 105.164062 159.597656 106.046875 C 159.511719 106.925781 159.464844 107.8125 159.464844 108.695312 C 159.464844 109.582031 159.507812 110.464844 159.597656 111.34375 C 159.683594 112.226562 159.8125 113.101562 159.984375 113.96875 C 160.160156 114.839844 160.375 115.695312 160.628906 116.542969 C 160.886719 117.390625 161.1875 118.222656 161.523438 119.039062 C 161.863281 119.859375 162.242188 120.65625 162.660156 121.4375 C 163.078125 122.21875 163.53125 122.976562 164.023438 123.714844 C 164.515625 124.449219 165.042969 125.160156 165.605469 125.84375 C 166.167969 126.527344 166.761719 127.183594 167.390625 127.808594 C 168.015625 128.4375 168.671875 129.03125 169.355469 129.59375 C 170.042969 130.152344 170.753906 130.679688 171.488281 131.171875 C 172.226562 131.664062 172.984375 132.117188 173.765625 132.535156 C 174.546875 132.953125 175.347656 133.332031 176.167969 133.671875 C 176.984375 134.007812 177.820312 134.308594 178.667969 134.5625 C 179.515625 134.820312 180.375 135.035156 181.242188 135.207031 C 182.109375 135.382812 182.988281 135.511719 183.867188 135.597656 C 184.75 135.683594 185.632812 135.726562 186.519531 135.726562 C 187.40625 135.726562 188.289062 135.683594 189.171875 135.597656 C 190.054688 135.511719 190.929688 135.382812 191.800781 135.210938 C 192.667969 135.035156 193.527344 134.820312 194.375 134.566406 C 195.222656 134.308594 196.054688 134.011719 196.875 133.671875 C 197.691406 133.332031 198.492188 132.953125 199.273438 132.535156 C 200.054688 132.121094 200.816406 131.664062 201.550781 131.171875 C 202.289062 130.679688 203 130.15625 203.683594 129.59375 C 204.371094 129.03125 205.027344 128.4375 205.652344 127.8125 C 206.277344 127.1875 206.871094 126.53125 207.433594 125.847656 C 207.996094 125.160156 208.523438 124.453125 209.015625 123.714844 C 209.507812 122.980469 209.964844 122.222656 210.382812 121.441406 C 210.800781 120.660156 211.179688 119.859375 211.515625 119.042969 C 211.855469 118.222656 212.15625 117.390625 212.410156 116.542969 C 212.667969 115.699219 212.882812 114.839844 213.058594 113.972656 C 213.230469 113.101562 213.359375 112.230469 213.445312 111.347656 C 213.53125 110.464844 213.578125 109.582031 213.578125 108.699219 C 213.574219 107.8125 213.53125 106.929688 213.441406 106.050781 C 213.355469 105.167969 213.226562 104.296875 213.050781 103.425781 C 212.878906 102.558594 212.660156 101.703125 212.40625 100.855469 C 212.148438 100.007812 211.847656 99.175781 211.507812 98.359375 C 211.167969 97.542969 210.789062 96.742188 210.371094 95.964844 C 209.953125 95.183594 209.5 94.425781 209.007812 93.691406 C 208.515625 92.953125 207.988281 92.246094 207.425781 91.5625 C 206.863281 90.875 206.269531 90.222656 205.644531 89.597656 C 205.015625 88.96875 204.363281 88.378906 203.675781 87.816406 C 202.992188 87.253906 202.28125 86.726562 201.546875 86.234375 C 200.808594 85.742188 200.050781 85.289062 199.269531 84.871094 C 198.488281 84.453125 197.691406 84.074219 196.871094 83.738281 C 196.054688 83.398438 195.222656 83.097656 194.375 82.84375 C 193.527344 82.585938 192.667969 82.367188 191.800781 82.195312 C 190.929688 82.023438 190.054688 81.890625 189.175781 81.804688 C 188.292969 81.714844 187.410156 81.671875 186.523438 81.671875 Z M 186.523438 81.667969 " fill-opacity="1" fill-rule="nonzero"/><g clip-path="url(#94db2ee580)"><path fill="#fb4d47" d="M 229.902344 258.925781 C 241.921875 242.378906 254.507812 223.917969 265.566406 205.429688 C 269.632812 204.355469 273.550781 203.160156 277.347656 201.90625 C 277.722656 201.78125 278.058594 201.589844 278.359375 201.328125 C 278.660156 201.070312 278.898438 200.765625 279.074219 200.410156 C 279.253906 200.054688 279.355469 199.679688 279.382812 199.285156 C 279.414062 198.890625 279.363281 198.503906 279.238281 198.128906 C 279.113281 197.753906 278.921875 197.417969 278.664062 197.117188 C 278.40625 196.816406 278.097656 196.578125 277.742188 196.398438 C 277.390625 196.222656 277.015625 196.117188 276.621094 196.089844 C 276.226562 196.058594 275.839844 196.109375 275.460938 196.230469 C 273.667969 196.828125 271.816406 197.398438 269.960938 197.964844 C 285.6875 170.574219 297.40625 143.664062 298.09375 123.503906 C 299.914062 124.539062 301.796875 125.445312 303.742188 126.222656 C 304.066406 126.214844 304.378906 126.160156 304.683594 126.054688 C 304.988281 125.945312 305.269531 125.792969 305.523438 125.597656 C 305.78125 125.398438 305.996094 125.164062 306.175781 124.898438 C 306.355469 124.628906 306.488281 124.339844 306.574219 124.027344 C 306.660156 123.71875 306.695312 123.402344 306.679688 123.078125 C 306.664062 122.757812 306.59375 122.445312 306.476562 122.144531 C 306.359375 121.84375 306.195312 121.570312 305.988281 121.324219 C 305.785156 121.074219 305.542969 120.867188 305.269531 120.695312 C 302.996094 119.320312 300.542969 118.007812 298.003906 116.722656 C 297.925781 114.949219 297.808594 113.179688 297.644531 111.414062 C 297.484375 109.648438 297.28125 107.886719 297.035156 106.128906 C 296.789062 104.371094 296.5 102.621094 296.171875 100.878906 C 295.839844 99.136719 295.46875 97.402344 295.058594 95.675781 C 294.644531 93.949219 294.191406 92.234375 293.699219 90.53125 C 293.203125 88.828125 292.667969 87.136719 292.09375 85.457031 C 291.519531 83.777344 290.902344 82.113281 290.25 80.464844 C 289.59375 78.816406 288.898438 77.183594 288.167969 75.566406 C 287.433594 73.949219 286.664062 72.351562 285.855469 70.773438 C 285.046875 69.195312 284.199219 67.636719 283.316406 66.097656 C 282.433594 64.558594 281.511719 63.039062 280.558594 61.546875 C 279.601562 60.050781 278.609375 58.578125 277.582031 57.132812 C 276.558594 55.683594 275.496094 54.261719 274.402344 52.863281 C 273.308594 51.464844 272.179688 50.097656 271.019531 48.753906 C 269.859375 47.410156 268.667969 46.09375 267.445312 44.808594 C 266.222656 43.519531 264.972656 42.265625 263.6875 41.035156 C 262.40625 39.808594 261.09375 38.613281 259.753906 37.449219 C 258.414062 36.285156 257.046875 35.152344 255.65625 34.054688 C 254.261719 32.957031 252.839844 31.890625 251.394531 30.859375 C 249.953125 29.828125 248.484375 28.832031 246.988281 27.871094 C 245.496094 26.910156 243.984375 25.984375 242.445312 25.09375 C 240.910156 24.203125 239.351562 23.351562 237.773438 22.539062 C 236.199219 21.722656 234.601562 20.945312 232.988281 20.207031 C 231.371094 19.46875 229.742188 18.769531 228.09375 18.109375 C 226.445312 17.445312 224.78125 16.824219 223.105469 16.246094 C 221.425781 15.664062 219.738281 15.121094 218.035156 14.621094 C 216.332031 14.121094 214.617188 13.660156 212.890625 13.238281 C 211.164062 12.820312 209.429688 12.441406 207.6875 12.105469 C 205.941406 11.769531 204.191406 11.476562 202.433594 11.222656 C 200.675781 10.96875 198.914062 10.757812 197.148438 10.589844 C 195.378906 10.421875 193.609375 10.292969 191.835938 10.210938 C 190.0625 10.125 188.285156 10.082031 186.511719 10.082031 C 184.734375 10.082031 182.960938 10.125 181.1875 10.210938 C 179.414062 10.296875 177.640625 10.421875 175.875 10.59375 C 174.105469 10.761719 172.34375 10.972656 170.585938 11.226562 C 168.828125 11.480469 167.078125 11.777344 165.335938 12.113281 C 163.589844 12.449219 161.855469 12.828125 160.132812 13.246094 C 158.40625 13.667969 156.691406 14.128906 154.988281 14.628906 C 153.285156 15.128906 151.59375 15.671875 149.917969 16.253906 C 148.238281 16.835938 146.578125 17.457031 144.929688 18.121094 C 143.28125 18.78125 141.648438 19.480469 140.035156 20.21875 C 138.421875 20.960938 136.824219 21.738281 135.25 22.550781 C 133.671875 23.367188 132.113281 24.21875 130.578125 25.109375 C 129.042969 26 127.527344 26.925781 126.035156 27.886719 C 124.542969 28.847656 123.074219 29.84375 121.628906 30.875 C 120.183594 31.910156 118.765625 32.972656 117.371094 34.074219 C 115.980469 35.171875 114.613281 36.304688 113.273438 37.46875 C 111.933594 38.632812 110.621094 39.832031 109.339844 41.058594 C 108.058594 42.285156 106.804688 43.542969 105.582031 44.828125 C 104.359375 46.117188 103.167969 47.429688 102.011719 48.773438 C 100.851562 50.117188 99.722656 51.488281 98.628906 52.886719 C 97.535156 54.285156 96.476562 55.707031 95.449219 57.15625 C 94.425781 58.601562 93.433594 60.074219 92.476562 61.570312 C 91.523438 63.066406 90.601562 64.582031 89.71875 66.121094 C 88.835938 67.660156 87.992188 69.222656 87.183594 70.800781 C 86.375 72.378906 85.601562 73.976562 84.871094 75.59375 C 84.136719 77.210938 83.445312 78.84375 82.789062 80.492188 C 82.136719 82.140625 81.523438 83.804688 80.945312 85.484375 C 80.371094 87.164062 79.839844 88.855469 79.34375 90.558594 C 78.851562 92.261719 78.398438 93.976562 77.984375 95.703125 C 77.574219 97.429688 77.203125 99.164062 76.875 100.90625 C 76.542969 102.652344 76.257812 104.402344 76.011719 106.160156 C 75.765625 107.914062 75.5625 109.675781 75.402344 111.445312 C 75.242188 113.210938 75.121094 114.980469 75.046875 116.753906 C 69.835938 119.308594 64.890625 122.304688 60.21875 125.742188 C 59.898438 125.980469 59.640625 126.269531 59.4375 126.609375 C 59.238281 126.953125 59.109375 127.320312 59.050781 127.710938 C 58.996094 128.101562 59.015625 128.492188 59.117188 128.875 C 59.214844 129.257812 59.382812 129.609375 59.621094 129.925781 C 59.902344 130.296875 60.257812 130.589844 60.675781 130.800781 C 61.097656 131.011719 61.542969 131.117188 62.011719 131.121094 C 62.640625 131.121094 70.800781 125.742188 74.957031 123.503906 C 75.433594 137.210938 81.085938 155.105469 91.785156 176.789062 C 90.042969 177.101562 88.398438 177.691406 86.851562 178.558594 C 85.304688 179.421875 83.9375 180.515625 82.757812 181.835938 L 82.488281 182.105469 C 82.105469 182.539062 81.742188 182.992188 81.40625 183.464844 C 81.066406 183.9375 80.753906 184.429688 80.46875 184.933594 C 80.183594 185.441406 79.925781 185.960938 79.695312 186.492188 C 79.460938 187.023438 79.261719 187.570312 79.085938 188.125 C 78.914062 188.679688 78.769531 189.238281 78.65625 189.808594 C 78.542969 190.378906 78.457031 190.953125 78.402344 191.53125 C 78.351562 192.109375 78.328125 192.691406 78.335938 193.269531 C 78.34375 193.851562 78.382812 194.429688 78.449219 195.007812 C 78.519531 195.585938 78.617188 196.15625 78.75 196.722656 C 78.878906 197.289062 79.035156 197.847656 79.226562 198.394531 C 79.414062 198.945312 79.628906 199.484375 79.875 200.011719 C 80.121094 200.535156 80.394531 201.050781 80.691406 201.546875 C 80.992188 202.046875 81.316406 202.527344 81.667969 202.988281 C 82.015625 203.453125 82.390625 203.898438 82.789062 204.320312 C 83.183594 204.746094 83.605469 205.148438 84.042969 205.527344 C 84.484375 205.910156 84.941406 206.265625 85.417969 206.597656 C 91.121094 210.539062 97.058594 214.082031 103.238281 217.230469 L 117.347656 248.203125 C 117.726562 249.019531 118.179688 249.796875 118.707031 250.527344 C 119.238281 251.261719 119.832031 251.933594 120.492188 252.550781 C 121.152344 253.167969 121.863281 253.714844 122.628906 254.195312 C 123.394531 254.675781 124.199219 255.074219 125.042969 255.398438 C 125.886719 255.722656 126.753906 255.960938 127.644531 256.117188 C 128.535156 256.273438 129.429688 256.339844 130.332031 256.324219 C 131.238281 256.304688 132.128906 256.203125 133.011719 256.011719 C 133.894531 255.820312 134.753906 255.546875 135.582031 255.191406 C 136.8125 254.664062 137.941406 253.964844 138.960938 253.101562 C 140.335938 255.042969 141.742188 256.984375 143.148438 258.925781 C 89.84375 263.792969 37.738281 279.054688 37.738281 302.980469 C 37.738281 331.773438 113.402344 348.976562 186.523438 348.976562 C 259.648438 348.976562 335.3125 331.773438 335.3125 302.980469 C 335.3125 279.054688 283.207031 263.792969 229.902344 258.925781 Z M 137.585938 240.078125 C 137.722656 240.539062 137.8125 241.011719 137.863281 241.488281 C 137.914062 241.96875 137.921875 242.445312 137.890625 242.925781 C 137.855469 243.40625 137.777344 243.878906 137.65625 244.347656 C 137.539062 244.8125 137.378906 245.265625 137.179688 245.703125 C 136.976562 246.140625 136.742188 246.558594 136.464844 246.953125 C 136.191406 247.347656 135.882812 247.714844 135.542969 248.058594 C 135.203125 248.398438 134.835938 248.707031 134.441406 248.980469 C 134.046875 249.257812 133.628906 249.496094 133.191406 249.695312 C 132.71875 249.902344 132.230469 250.0625 131.730469 250.175781 C 131.226562 250.285156 130.71875 250.347656 130.203125 250.363281 C 129.6875 250.375 129.175781 250.339844 128.667969 250.253906 C 128.160156 250.167969 127.664062 250.03125 127.183594 249.847656 C 126.699219 249.667969 126.242188 249.4375 125.804688 249.167969 C 125.367188 248.894531 124.960938 248.582031 124.582031 248.230469 C 124.207031 247.882812 123.867188 247.496094 123.566406 247.078125 C 123.261719 246.664062 123.003906 246.21875 122.789062 245.753906 L 107.78125 212.808594 L 106.824219 212.332031 C 100.570312 209.214844 94.574219 205.667969 88.828125 201.699219 C 87.589844 200.84375 86.582031 199.777344 85.804688 198.488281 C 85.027344 197.203125 84.550781 195.8125 84.371094 194.320312 C 84.195312 192.847656 84.324219 191.402344 84.757812 189.984375 C 85.1875 188.5625 85.886719 187.292969 86.855469 186.167969 L 87.125 185.898438 C 88.109375 184.785156 89.277344 183.925781 90.632812 183.316406 C 91.988281 182.707031 93.410156 182.402344 94.894531 182.402344 C 97.171875 182.417969 99.246094 183.074219 101.113281 184.375 C 105.785156 187.585938 110.617188 190.535156 115.613281 193.214844 L 117.078125 194.023438 L 145.867188 176.96875 C 147.117188 176.214844 148.472656 175.84375 149.933594 175.863281 C 150.761719 175.859375 151.570312 175.980469 152.359375 176.230469 C 153.148438 176.480469 153.878906 176.84375 154.554688 177.320312 C 155.230469 177.800781 155.816406 178.367188 156.316406 179.027344 C 156.8125 179.6875 157.199219 180.410156 157.472656 181.191406 C 157.746094 181.96875 157.890625 182.773438 157.914062 183.601562 C 157.9375 184.425781 157.832031 185.238281 157.601562 186.03125 C 157.371094 186.824219 157.023438 187.566406 156.5625 188.25 C 156.101562 188.9375 155.542969 189.535156 154.894531 190.050781 L 138.242188 203.371094 L 143.59375 205.042969 C 158.699219 209.84375 174.175781 212.320312 190.023438 212.480469 C 192.085938 212.507812 194.148438 212.507812 196.210938 212.449219 C 203.265625 212.269531 210.28125 211.640625 217.257812 210.566406 C 217.257812 210.566406 220.964844 209.941406 221.441406 209.820312 C 221.710938 209.773438 221.984375 209.777344 222.25 209.832031 C 222.519531 209.882812 222.773438 209.980469 223.007812 210.125 C 223.238281 210.269531 223.4375 210.453125 223.605469 210.667969 C 223.773438 210.886719 223.894531 211.128906 223.972656 211.390625 C 224.046875 211.660156 224.066406 211.9375 224.03125 212.214844 C 224 212.496094 223.914062 212.757812 223.777344 213.003906 C 223.640625 213.25 223.464844 213.460938 223.246094 213.640625 C 223.03125 213.816406 222.785156 213.949219 222.519531 214.03125 C 222.519531 214.03125 218.453125 215.289062 216.957031 215.707031 C 210.351562 217.617188 204.222656 219.171875 198.273438 220.453125 C 174.835938 225.59375 155.3125 226.25 136.808594 222.574219 L 131.875 221.589844 Z M 202.398438 206.175781 L 209.425781 197.039062 C 209.65625 196.722656 209.960938 196.503906 210.335938 196.382812 C 210.707031 196.261719 211.082031 196.261719 211.457031 196.382812 C 211.84375 196.46875 212.167969 196.667969 212.421875 196.972656 C 212.675781 197.277344 212.8125 197.625 212.832031 198.023438 L 213.519531 205.042969 L 213.519531 205.074219 C 213.308594 205.101562 205.265625 206.175781 202.398438 206.175781 Z M 215.851562 230.070312 L 215.851562 230.101562 C 215.894531 230.492188 215.820312 230.855469 215.632812 231.199219 C 215.445312 231.542969 215.175781 231.800781 214.824219 231.972656 C 214.472656 232.148438 214.105469 232.203125 213.71875 232.144531 C 213.332031 232.089844 212.996094 231.925781 212.710938 231.65625 L 205.207031 224.996094 C 208.609375 224.148438 212.683594 223.152344 215.164062 222.425781 Z M 142.726562 248.082031 C 143.527344 246.285156 143.925781 244.402344 143.925781 242.4375 C 143.921875 241.035156 143.722656 239.660156 143.324219 238.316406 L 140.515625 229.296875 C 150.101562 230.644531 159.730469 231.089844 169.402344 230.636719 C 179.070312 230.1875 188.617188 228.84375 198.035156 226.605469 L 208.738281 236.136719 C 209.460938 236.777344 210.277344 237.269531 211.183594 237.613281 C 212.089844 237.960938 213.027344 238.132812 214 238.136719 C 215.261719 238.125 216.457031 237.835938 217.585938 237.269531 C 218.289062 236.910156 218.925781 236.457031 219.492188 235.90625 C 220.058594 235.359375 220.53125 234.734375 220.910156 234.042969 C 221.289062 233.351562 221.558594 232.617188 221.714844 231.84375 C 221.871094 231.070312 221.910156 230.289062 221.832031 229.503906 L 220.992188 220.722656 L 224.253906 219.769531 C 225.417969 219.414062 226.453125 218.824219 227.351562 218.003906 C 228.253906 217.179688 228.933594 216.207031 229.394531 215.078125 C 229.523438 214.769531 229.636719 214.457031 229.726562 214.132812 C 229.816406 213.8125 229.890625 213.484375 229.941406 213.15625 C 229.992188 212.824219 230.023438 212.492188 230.03125 212.15625 C 230.042969 211.824219 230.03125 211.488281 230 211.15625 C 229.96875 210.824219 229.914062 210.492188 229.84375 210.167969 C 229.769531 209.839844 229.679688 209.519531 229.566406 209.203125 C 229.453125 208.890625 229.320312 208.582031 229.171875 208.285156 C 229.023438 207.984375 228.851562 207.695312 228.667969 207.417969 C 228.480469 207.140625 228.277344 206.875 228.058594 206.621094 C 227.839844 206.367188 227.605469 206.128906 227.359375 205.90625 C 227.109375 205.679688 226.847656 205.472656 226.574219 205.28125 C 226.300781 205.089844 226.015625 204.914062 225.71875 204.757812 C 225.421875 204.601562 225.117188 204.464844 224.804688 204.347656 C 224.492188 204.226562 224.171875 204.128906 223.847656 204.050781 C 223.523438 203.96875 223.195312 203.910156 222.863281 203.871094 C 222.527344 203.832031 222.195312 203.816406 221.859375 203.816406 C 221.351562 203.816406 219.707031 204.085938 219.410156 204.117188 L 218.8125 197.484375 C 218.738281 196.699219 218.546875 195.9375 218.246094 195.207031 C 217.941406 194.476562 217.535156 193.808594 217.03125 193.199219 C 216.527344 192.589844 215.945312 192.066406 215.28125 191.632812 C 214.621094 191.199219 213.910156 190.871094 213.148438 190.648438 C 212.386719 190.429688 211.609375 190.324219 210.820312 190.339844 C 210.027344 190.351562 209.253906 190.480469 208.5 190.722656 C 207.75 190.96875 207.046875 191.320312 206.398438 191.773438 C 205.753906 192.230469 205.1875 192.769531 204.699219 193.394531 L 194.625 206.507812 C 179.757812 206.78125 165.160156 204.941406 150.828125 200.980469 L 158.632812 194.707031 C 159.195312 194.261719 159.71875 193.773438 160.207031 193.246094 C 160.691406 192.714844 161.136719 192.152344 161.535156 191.554688 C 161.933594 190.960938 162.285156 190.335938 162.585938 189.683594 C 162.890625 189.035156 163.140625 188.363281 163.339844 187.671875 C 163.539062 186.984375 163.683594 186.28125 163.773438 185.570312 C 163.867188 184.855469 163.902344 184.140625 163.878906 183.425781 C 163.859375 182.707031 163.785156 181.996094 163.65625 181.289062 C 163.523438 180.582031 163.339844 179.890625 163.101562 179.210938 C 162.863281 178.535156 162.578125 177.878906 162.238281 177.246094 C 161.898438 176.613281 161.511719 176.011719 161.082031 175.4375 C 160.648438 174.863281 160.175781 174.324219 159.660156 173.824219 C 159.144531 173.324219 158.59375 172.867188 158.007812 172.453125 C 157.417969 172.039062 156.804688 171.667969 156.160156 171.347656 C 155.519531 171.027344 154.855469 170.761719 154.167969 170.542969 C 153.484375 170.324219 152.785156 170.160156 152.078125 170.050781 C 151.367188 169.941406 150.652344 169.886719 149.933594 169.886719 C 147.386719 169.894531 145.015625 170.542969 142.816406 171.828125 L 116.957031 187.152344 C 112.714844 184.820312 108.527344 182.222656 104.523438 179.476562 C 102.691406 178.210938 100.6875 177.34375 98.511719 176.878906 C 86.792969 153.757812 80.90625 135.183594 80.90625 121.621094 C 80.90625 119.894531 80.949219 118.167969 81.03125 116.445312 C 81.117188 114.71875 81.242188 112.996094 81.414062 111.277344 C 81.582031 109.558594 81.792969 107.847656 82.046875 106.136719 C 82.300781 104.429688 82.597656 102.730469 82.933594 101.035156 C 83.273438 99.339844 83.648438 97.65625 84.070312 95.980469 C 84.488281 94.308594 84.949219 92.644531 85.453125 90.988281 C 85.953125 89.335938 86.496094 87.699219 87.078125 86.070312 C 87.660156 84.445312 88.285156 82.835938 88.945312 81.238281 C 89.605469 79.644531 90.304688 78.066406 91.046875 76.503906 C 91.785156 74.945312 92.5625 73.402344 93.375 71.878906 C 94.191406 70.355469 95.042969 68.851562 95.929688 67.371094 C 96.820312 65.890625 97.746094 64.433594 98.703125 62.996094 C 99.664062 61.558594 100.660156 60.148438 101.691406 58.761719 C 102.71875 57.375 103.78125 56.015625 104.878906 54.679688 C 105.976562 53.34375 107.105469 52.035156 108.265625 50.757812 C 109.425781 49.476562 110.617188 48.226562 111.839844 47.003906 C 113.0625 45.785156 114.3125 44.59375 115.59375 43.433594 C 116.875 42.273438 118.183594 41.148438 119.519531 40.050781 C 120.855469 38.957031 122.21875 37.894531 123.605469 36.863281 C 124.996094 35.835938 126.40625 34.84375 127.84375 33.882812 C 129.28125 32.921875 130.742188 32 132.226562 31.113281 C 133.707031 30.222656 135.210938 29.371094 136.734375 28.558594 C 138.261719 27.746094 139.804688 26.96875 141.367188 26.230469 C 142.929688 25.492188 144.507812 24.792969 146.105469 24.132812 C 147.703125 23.46875 149.316406 22.847656 150.941406 22.265625 C 152.570312 21.683594 154.210938 21.144531 155.863281 20.644531 C 157.519531 20.140625 159.183594 19.679688 160.859375 19.261719 C 162.539062 18.839844 164.222656 18.464844 165.917969 18.125 C 167.613281 17.789062 169.316406 17.496094 171.027344 17.242188 C 172.738281 16.988281 174.453125 16.777344 176.171875 16.605469 C 177.890625 16.4375 179.617188 16.3125 181.34375 16.226562 C 183.070312 16.140625 184.796875 16.097656 186.523438 16.097656 C 188.253906 16.097656 189.980469 16.140625 191.707031 16.226562 C 193.433594 16.3125 195.15625 16.4375 196.878906 16.605469 C 198.597656 16.777344 200.3125 16.988281 202.023438 17.242188 C 203.730469 17.496094 205.433594 17.789062 207.128906 18.125 C 208.824219 18.464844 210.511719 18.839844 212.1875 19.261719 C 213.863281 19.679688 215.53125 20.140625 217.183594 20.644531 C 218.839844 21.144531 220.480469 21.683594 222.105469 22.265625 C 223.734375 22.847656 225.347656 23.46875 226.941406 24.132812 C 228.539062 24.792969 230.121094 25.492188 231.683594 26.230469 C 233.246094 26.96875 234.789062 27.746094 236.3125 28.558594 C 237.835938 29.371094 239.339844 30.222656 240.824219 31.113281 C 242.304688 32 243.765625 32.921875 245.203125 33.882812 C 246.640625 34.84375 248.054688 35.835938 249.441406 36.863281 C 250.832031 37.894531 252.191406 38.957031 253.527344 40.050781 C 254.863281 41.148438 256.171875 42.273438 257.453125 43.433594 C 258.734375 44.59375 259.988281 45.785156 261.207031 47.003906 C 262.429688 48.226562 263.621094 49.476562 264.785156 50.757812 C 265.945312 52.035156 267.074219 53.34375 268.167969 54.679688 C 269.265625 56.015625 270.328125 57.375 271.359375 58.761719 C 272.386719 60.148438 273.382812 61.558594 274.34375 62.996094 C 275.304688 64.433594 276.230469 65.890625 277.117188 67.371094 C 278.007812 68.851562 278.859375 70.355469 279.671875 71.878906 C 280.488281 73.402344 281.265625 74.945312 282.003906 76.503906 C 282.742188 78.066406 283.441406 79.644531 284.105469 81.238281 C 284.765625 82.835938 285.386719 84.445312 285.96875 86.070312 C 286.550781 87.699219 287.09375 89.335938 287.597656 90.988281 C 288.097656 92.644531 288.558594 94.308594 288.980469 95.980469 C 289.398438 97.65625 289.777344 99.339844 290.113281 101.035156 C 290.453125 102.730469 290.746094 104.429688 291 106.136719 C 291.253906 107.847656 291.464844 109.558594 291.636719 111.277344 C 291.804688 112.996094 291.933594 114.71875 292.015625 116.445312 C 292.101562 118.167969 292.144531 119.894531 292.144531 121.621094 C 292.144531 142.140625 278.722656 171.351562 261.589844 200.292969 C 255.074219 201.964844 248.238281 203.421875 241.082031 204.65625 C 240.703125 204.707031 240.347656 204.828125 240.015625 205.015625 C 239.683594 205.207031 239.394531 205.449219 239.15625 205.75 C 238.917969 206.046875 238.742188 206.378906 238.632812 206.746094 C 238.519531 207.113281 238.480469 207.484375 238.515625 207.867188 C 238.546875 208.25 238.648438 208.609375 238.820312 208.953125 C 238.992188 209.292969 239.222656 209.589844 239.507812 209.847656 C 239.792969 210.101562 240.117188 210.292969 240.476562 210.421875 C 240.835938 210.550781 241.207031 210.609375 241.589844 210.597656 C 241.753906 210.59375 241.910156 210.574219 242.070312 210.539062 C 247.269531 209.671875 252.324219 208.65625 257.226562 207.492188 C 245.433594 227.300781 223.492188 257.886719 217.136719 266.183594 C 216.007812 267.65625 205 282.191406 202.128906 285.835938 C 201.667969 286.425781 201.175781 286.988281 200.652344 287.523438 C 200.125 288.058594 199.570312 288.5625 198.988281 289.035156 C 198.40625 289.507812 197.800781 289.945312 197.167969 290.347656 C 196.535156 290.75 195.882812 291.117188 195.207031 291.445312 C 194.535156 291.773438 193.84375 292.0625 193.136719 292.316406 C 192.429688 292.566406 191.710938 292.773438 190.980469 292.941406 C 190.25 293.113281 189.511719 293.238281 188.765625 293.324219 C 188.023438 293.410156 187.273438 293.453125 186.523438 293.453125 C 185.773438 293.453125 185.027344 293.410156 184.28125 293.324219 C 183.535156 293.238281 182.796875 293.113281 182.066406 292.941406 C 181.335938 292.773438 180.617188 292.566406 179.910156 292.316406 C 179.203125 292.0625 178.515625 291.773438 177.839844 291.445312 C 177.167969 291.117188 176.515625 290.75 175.882812 290.347656 C 175.25 289.945312 174.640625 289.507812 174.058594 289.035156 C 173.476562 288.5625 172.921875 288.058594 172.398438 287.523438 C 171.875 286.988281 171.378906 286.425781 170.917969 285.835938 C 164.191406 277.234375 145.121094 251.457031 142.726562 248.082031 Z M 186.523438 343.003906 C 101.113281 343.003906 43.714844 322.304688 43.714844 302.980469 C 43.714844 285.625 87.152344 269.527344 147.242188 264.539062 L 147.273438 264.539062 C 148.796875 266.628906 163.714844 286.34375 166.195312 289.507812 C 166.796875 290.277344 167.4375 291.011719 168.125 291.707031 C 168.808594 292.40625 169.527344 293.058594 170.289062 293.675781 C 171.046875 294.289062 171.835938 294.859375 172.660156 295.382812 C 173.484375 295.910156 174.335938 296.386719 175.214844 296.8125 C 176.089844 297.242188 176.992188 297.617188 177.910156 297.945312 C 178.832031 298.269531 179.769531 298.542969 180.71875 298.761719 C 181.671875 298.984375 182.632812 299.148438 183.601562 299.257812 C 184.574219 299.371094 185.546875 299.425781 186.523438 299.425781 C 187.5 299.425781 188.476562 299.371094 189.445312 299.257812 C 190.417969 299.148438 191.378906 298.984375 192.328125 298.761719 C 193.28125 298.542969 194.21875 298.269531 195.136719 297.945312 C 196.058594 297.617188 196.957031 297.242188 197.835938 296.8125 C 198.714844 296.386719 199.5625 295.910156 200.386719 295.382812 C 201.210938 294.859375 202.003906 294.289062 202.761719 293.675781 C 203.519531 293.058594 204.242188 292.40625 204.925781 291.707031 C 205.609375 291.011719 206.253906 290.277344 206.851562 289.507812 C 213.339844 281.207031 219.707031 272.84375 225.777344 264.539062 L 225.808594 264.539062 C 285.894531 269.527344 329.332031 285.625 329.332031 302.980469 C 329.332031 322.304688 271.933594 343.003906 186.523438 343.003906 Z M 186.523438 343.003906 " fill-opacity="1" fill-rule="nonzero"/></g><path fill="#fb4d47" d="M 68.4375 182.835938 C 56.460938 175.128906 49.546875 166.410156 48.449219 157.628906 C 48.398438 157.238281 48.273438 156.871094 48.078125 156.523438 C 47.882812 156.179688 47.628906 155.886719 47.316406 155.644531 C 47 155.402344 46.652344 155.226562 46.273438 155.125 C 45.890625 155.019531 45.503906 154.992188 45.109375 155.039062 C 44.714844 155.089844 44.347656 155.210938 44.003906 155.40625 C 43.65625 155.605469 43.363281 155.859375 43.121094 156.171875 C 42.878906 156.484375 42.703125 156.832031 42.597656 157.210938 C 42.492188 157.59375 42.464844 157.980469 42.511719 158.375 C 43.839844 168.96875 51.6875 179.164062 65.199219 187.859375 C 65.53125 188.082031 65.894531 188.230469 66.285156 188.308594 C 66.679688 188.382812 67.070312 188.378906 67.460938 188.292969 C 67.851562 188.207031 68.207031 188.050781 68.535156 187.820312 C 68.859375 187.589844 69.125 187.304688 69.335938 186.964844 C 69.542969 186.628906 69.679688 186.265625 69.746094 185.878906 C 69.8125 185.492188 69.804688 185.105469 69.71875 184.71875 C 69.636719 184.335938 69.484375 183.980469 69.261719 183.652344 C 69.039062 183.328125 68.765625 183.054688 68.4375 182.835938 Z M 68.4375 182.835938 " fill-opacity="1" fill-rule="nonzero"/><path fill="#fb4d47" d="M 329.945312 148.582031 C 329.847656 148.199219 329.679688 147.847656 329.445312 147.53125 C 329.207031 147.214844 328.921875 146.953125 328.582031 146.75 C 328.242188 146.546875 327.875 146.414062 327.484375 146.355469 C 327.09375 146.296875 326.703125 146.316406 326.320312 146.414062 C 325.9375 146.507812 325.585938 146.671875 325.265625 146.90625 C 324.949219 147.144531 324.6875 147.429688 324.480469 147.769531 C 324.277344 148.105469 324.144531 148.472656 324.085938 148.863281 C 324.027344 149.253906 324.042969 149.640625 324.136719 150.027344 C 324.550781 151.683594 324.761719 153.363281 324.761719 155.070312 C 324.761719 164.125 318.613281 173.179688 306.976562 181.257812 C 306.664062 181.492188 306.40625 181.777344 306.199219 182.109375 C 305.996094 182.445312 305.859375 182.804688 305.789062 183.1875 C 305.71875 183.574219 305.722656 183.957031 305.800781 184.34375 C 305.875 184.726562 306.019531 185.082031 306.230469 185.414062 C 307.332031 187.402344 309.871094 186.523438 310.390625 186.160156 C 323.703125 176.917969 330.742188 166.167969 330.742188 155.070312 C 330.738281 152.875 330.472656 150.714844 329.945312 148.582031 Z M 329.945312 148.582031 " fill-opacity="1" fill-rule="nonzero"/></svg>